# 3ds Max Wavefront OBJ Exporter v0.97b - (c)2007 guruware
# File Created: 27.04.2019 23:36:05

mtllib arrow.mtl

#
# object Plane001
#

v  61.8090 0.0000 52.7495
v  50.1656 0.0000 55.9528
v  48.4859 0.0000 60.5192
v  42.8531 0.0000 52.7495
v  42.8531 0.0000 55.9528
v  50.1656 0.0000 52.7495
v  48.4859 0.0000 44.9799
v  50.1656 0.0000 49.5463
v  42.8531 0.0000 49.5463
# 9 vertices

vn 0.0000 1.0000 -0.0000
# 1 vertex normals

vt 1.0000 0.5000 0.0000
vt 1.0000 0.0000 0.0000
vt 0.0000 0.5000 0.0000
vt 0.0000 0.0000 0.0000
# 4 texture coords

o Plane001
g Plane001
usemtl wire_153228184
s off
f 1/1/1 2/2/1 3/2/1 
s 1
f 4/3/1 5/4/1 2/2/1 6/1/1 
s off
f 6/1/1 2/2/1 1/1/1 
f 1/1/1 7/2/1 8/2/1 
s 1
f 4/3/1 6/1/1 8/2/1 9/4/1 
s off
f 6/1/1 1/1/1 8/2/1 
# 2 polygons - 4 triangles

